<?xml version="1.0" encoding="UTF-8" standalone="no"?>
<!-- Created with Inkscape (http://www.inkscape.org/) -->

<svg
   xmlns:svg="http://www.w3.org/2000/svg"
   xmlns="http://www.w3.org/2000/svg"
   version="1.1"
   width="259"
   height="25"
   id="svg2990">
  <defs
     id="defs2992" />
  <g
     transform="translate(-245.66937,-519.7778)"
     id="layer1">
    <path
       d="m 452.60761,520.31152 -5.03125,0 c 0.81625,1.4625 0.85,3.09375 0.85,4.76 l 0,5.44125 -10.9825,0 0,-5.44125 c 0,-1.66625 0.0375,-3.2975 0.85125,-4.76 l -5.03,0 c 0.815,1.4625 0.84875,3.09375 0.84875,4.76 l 0,14.385 c 0,1.66375 -0.0337,3.29625 -0.84875,4.79 l 5.03,0 c -0.81375,-1.49375 -0.85125,-3.12625 -0.85125,-4.79 l 0,-7.24625 10.9825,0 0,7.24625 c 0,1.66375 -0.0337,3.29625 -0.85,4.79 l 5.03125,0 c -0.81625,-1.49375 -0.85,-3.12625 -0.85,-4.79 l 0,-14.385 c 0,-1.66625 0.0337,-3.2975 0.85,-4.76"
       id="path24"
       style="fill:#072748;fill-opacity:1;fill-rule:nonzero;stroke:none" />
    <path
       d="m 462.95212,520.31152 -5.1,0 c 0.815,1.25875 0.88375,3.09375 0.88375,4.76 l 0,14.385 c 0,1.66375 -0.0325,3.5325 -0.85,4.79 l 4.9625,0 c -0.74625,-1.155 -0.78,-3.2275 -0.78,-4.79 l 0,-14.385 c 0,-1.7 0.0337,-3.46875 0.88375,-4.76"
       id="path28"
       style="fill:#072748;fill-opacity:1;fill-rule:nonzero;stroke:none" />
    <path
       d="m 491.74299,543.00515 c -4.34125,0 -4.21375,-0.2525 -4.21375,-2.90375 l 0,-16.5875 c 0,-0.6125 0.07,-1.25875 0.07,-1.80125 1.07625,-0.20625 2.16,-0.1425 2.96875,-0.1425 6.895,0 9.99375,4.2275 9.99375,10.43875 0,6.08375 -2.4925,10.99625 -8.81875,10.99625 m 0.5075,-22.92875 c -3.60375,0 -6.81,0.27625 -8.8675,0.27625 0.81,1.25875 0.81,3.1725 0.81,4.84 l 0,14.45625 c 0,1.665 0,3.34 -0.81,4.5975 2.56125,0 4.66,0.13625 8.36,0.13625 7.1925,0 12.7575,-5.13625 12.7575,-13.07375 0,-7.0375 -4.465,-11.36 -12.25,-11.2325"
       id="path32"
       style="fill:#072748;fill-opacity:1;fill-rule:nonzero;stroke:none" />
    <path
       d="m 350.61512,522.99727 c 0.9175,-0.7125 2.1175,-0.7575 2.96875,-0.7575 l 4.61375,0 0,17.145 c 0,1.66875 0,3.60375 -0.8175,4.86125 l 4.96625,0 c -0.81875,-1.2575 -0.81875,-3.1925 -0.81875,-4.86125 l 0,-17.145 4.1,0 c 1.53,0 3.25,-0.33 3.89375,-1.92875 l -18.15625,0 -0.75,2.68625"
       id="path36"
       style="fill:#072748;fill-opacity:1;fill-rule:nonzero;stroke:none" />
    <path
       d="m 475.29574,542.5729 c 2.075,0 3.98,-0.1275 5.815,-1.92875 l -0.735,3.6025 -2.2225,0 -9.87375,0 c 0.86375,-1.16375 0.86375,-3.235 0.86375,-4.785 l 0,-14.39125 c 0,-1.665 -0.0312,-3.5 -0.8525,-4.75875 l 5.03375,0 c -0.815,1.25875 -0.84875,3.09375 -0.84875,4.75875 0,0 0.008,16.66375 0.0113,17.505 0.4025,-0.005 2.80875,-0.002 2.80875,-0.002"
       id="path40"
       style="fill:#072748;fill-opacity:1;fill-rule:nonzero;stroke:none" />
    <path
       d="m 415.48349,531.70015 c 0,-5.53875 2.55375,-10.26625 7.7175,-10.26625 3.63875,0 5.3325,1.39625 6.46,2.99 l 0,-4.17875 c -1.7325,0 -3.09375,-0.37375 -6.3575,-0.37375 -7.6475,0 -11.69375,6.18875 -11.69375,12.71375 0,9.25125 6.28875,12.10125 10.87875,12.10125 4.18125,0 7.035,-1.90125 8.2275,-5.23375 -2.03875,1.93625 -4.42,2.92375 -6.80125,2.92375 -4.35,0 -8.43125,-3.50125 -8.43125,-10.67625"
       id="path44"
       style="fill:#072748;fill-opacity:1;fill-rule:nonzero;stroke:none" />
    <path
       d="m 390.53249,520.31152 -5.06375,0 c 0.81375,1.4625 0.8825,3.16125 0.8825,4.825 l 0,5.37625 -10.98,0 0,-5.37625 c 0,-1.66375 0.0337,-3.3625 0.84875,-4.825 l -5.02875,0 c 0.815,1.4625 0.8475,3.16125 0.8475,4.825 l 0,14.24875 c 0,1.66875 -0.0325,3.3675 -0.8475,4.86125 l 5.02875,0 c -0.815,-1.49375 -0.84875,-3.1925 -0.84875,-4.86125 l 0,-7.175 10.98,0 0,7.175 c 0,1.66875 -0.0688,3.3675 -0.8825,4.86125 l 5.06375,0 c -0.81625,-1.49375 -0.85,-3.1925 -0.85,-4.86125 l 0,-14.24875 c 0,-1.66375 0.0338,-3.3625 0.85,-4.825"
       id="path48"
       style="fill:#072748;fill-opacity:1;fill-rule:nonzero;stroke:none" />
    <path
       d="m 339.16286,543.05777 c -5.95125,0 -7.6175,-6.35625 -7.6175,-11.25375 0,-5.33875 2.28,-10.3 7.6175,-10.3 5.9475,0 7.61375,6.42375 7.61375,11.3175 0,5.3375 -2.27875,10.23625 -7.61375,10.23625 m 0.30375,-23.18625 c -7.7175,0 -11.79625,5.91625 -11.79625,12.95 0,6.59625 3.435,11.865 11.22,11.865 7.6825,0 11.7625,-5.84625 11.7625,-12.8825 0,-6.5975 -3.39875,-11.9325 -11.18625,-11.9325"
       id="path60"
       style="fill:#072748;fill-opacity:1;fill-rule:nonzero;stroke:none" />
    <path
       d="m 314.64962,531.24302 c -0.54125,0 -1.12,-0.0325 -1.66375,-0.10125 l 0,-7.94 c 0,-0.5775 0.0325,-1.10125 0.0663,-1.64625 0.91875,-0.10125 1.835,-0.19375 2.685,-0.19375 2.415,0 4.285,0.94 4.285,4.44375 0,3.16125 -1.7675,5.4375 -5.3725,5.4375 m 9.86,9.535 -6.46,-8.99 c 3.14875,-0.85625 5.645,-2.91125 5.645,-6.72 0,-2.7975 -2.175,-5.32375 -7.0725,-5.1325 -2.3775,0.0925 -4.61625,0.2375 -7.74625,0.37375 0.74875,1.1575 0.78375,2.92375 0.78375,4.4875 l 0,14.915 c 0,1.36 -0.0688,3.07125 -0.98625,4.535 l 5.12625,0 c -0.81375,-1.2575 -0.81375,-2.87 -0.81375,-4.535 l 0,-7.10875 c 1.86875,0.17125 2.13875,0.44125 3.94375,3.025 l 4.52125,6.57625 c 0.91625,1.29375 1.52875,2.0425 3.12625,2.0425 l 3.20125,0 c -1.01125,-0.79125 -2.215,-2.00625 -3.26875,-3.46875"
       id="path64"
       style="fill:#072748;fill-opacity:1;fill-rule:nonzero;stroke:none" />
    <path
       d="m 402.56674,530.06227 c -3.1725,-1.815 -4.22625,-2.805 -4.23625,-4.8125 -0.0138,-2.19375 1.665,-3.8075 4.21375,-3.82125 2.005,-0.015 4.2375,1.055 5.435,2.30625 l -0.005,-3.54875 c -1.6525,-0.0113 -3.1425,-0.3375 -5.54375,-0.32375 -3.36375,0.0238 -7.60375,1.58 -7.57125,6.20375 0.0213,3.43375 2.585,5.185 5.51875,6.865 3.82125,2.1825 5.13375,3.34625 5.1475,5.72375 0.0213,3.04625 -2.42625,4.4575 -4.91125,4.47625 -3.8425,0.0237 -5.26,-1.80125 -6.5975,-3.62875 l 0.006,3.90875 c 1.7725,0.7675 4.055,1.2975 6.29625,1.2825 4.42,-0.03 8.72375,-2.16375 8.69125,-7.12875 -0.0275,-3.8225 -2.89375,-5.4875 -6.44375,-7.5025"
       id="path68"
       style="fill:#072748;fill-opacity:1;fill-rule:nonzero;stroke:none" />
    <path
       d="m 269.77374,543.45602 c 0,0.39625 -0.32125,0.71625 -0.71625,0.71625 l -22.5025,0 c -0.39625,0 -0.71625,-0.32 -0.71625,-0.71625 l 0,-22.5025 c 0,-0.39625 0.32,-0.71625 0.71625,-0.71625 l 22.5025,0 c 0.395,0 0.71625,0.32 0.71625,0.71625 l 0,22.5025"
       id="path80"
       style="fill:#072748;fill-opacity:1;fill-rule:nonzero;stroke:none" />
    <path
       d="m 261.13962,523.10477 0.515,1.2075 1.22,-0.3575 -1.35875,2.8625 -0.74625,0.1025 -2.14375,4.45 10e-4,-1.62375 1.5125,-3.13125 -0.38375,-0.6425 1.38375,-2.8675 z"
       id="path84"
       style="fill:#ffffff;fill-opacity:1;fill-rule:nonzero;stroke:none" />
    <path
       d="m 256.82786,522.5879 0.9875,0.84625 0.94875,-0.85375 0.0137,3.1725 -0.62,0.40875 0.0237,4.93375 -0.7075,-1.45625 -0.0138,-3.475 -0.6175,-0.4025 -0.015,-3.17375 z"
       id="path88"
       style="fill:#ffffff;fill-opacity:1;fill-rule:nonzero;stroke:none" />
    <path
       d="m 253.97311,524.33452 0.47625,-1.19625 1.41,2.855 -0.37,0.64125 2.1775,4.42 -1.2775,-0.98875 -1.52625,-3.1175 -0.735,-0.0962 -1.41,-2.85125 1.255,0.33375 z"
       id="path92"
       style="fill:#ffffff;fill-opacity:1;fill-rule:nonzero;stroke:none" />
    <path
       d="m 262.65362,537.2969 0.73875,-0.3725 -4.5675,-3.52625 2.56,5.17625 0.4975,-0.6575 0.22375,2.92625 -2.1775,-1.9575 0.82125,-0.009 -2.55875,-5.16375 0.03,5.765 0.74125,-0.3725 -1.07,2.7225 -1.11125,-2.71125 0.74375,0.36625 -0.0288,-5.77 -2.5075,5.19 0.8325,0 -2.1625,1.9825 0.18375,-2.92875 0.51625,0.6525 2.505,-5.20375 -4.5375,3.57 0.75125,0.36875 -2.8075,0.82375 1.45625,-2.545 0.17,0.80375 5.36625,-4.23625 -4.39375,-3.4075 -0.715,0.22625 -2.51375,-1.925 1.27875,-0.26625 -0.09,-1.2775 2.51625,1.945 -0.0625,0.7325 10.54375,8.1575 0.165,-0.81 1.47625,2.53 -2.81375,-0.79875 z"
       id="path96"
       style="fill:#ffffff;fill-opacity:1;fill-rule:nonzero;stroke:none" />
    <path
       d="m 263.49761,528.9564 -0.71625,-0.2225 -3.8925,3.06375 0.72,-1.4525 2.73375,-2.16625 -0.0587,-0.73375 2.49875,-1.97125 -0.0562,1.30875 1.2475,0.22375 -2.47625,1.95 z"
       id="path100"
       style="fill:#ffffff;fill-opacity:1;fill-rule:nonzero;stroke:none" />
    <path
       d="m 297.66899,543.41065 c 0,0.39625 -0.32125,0.71625 -0.71625,0.71625 l -22.50375,0 c -0.395,0 -0.71625,-0.32 -0.71625,-0.71625 l 0,-22.5025 c 0,-0.39625 0.32125,-0.71625 0.71625,-0.71625 l 22.50375,0 c 0.395,0 0.71625,0.32 0.71625,0.71625 l 0,22.5025"
       id="path104"
       style="fill:#072748;fill-opacity:1;fill-rule:nonzero;stroke:none" />
    <path
       d="m 287.01774,529.29327 c 0,-1.4175 -1.075,-1.89875 -2.1525,-1.89875 -0.37125,0 -1.05875,0.025 -1.485,0.07 -0.0238,0.25375 -0.0375,0.43875 -0.0375,0.67375 l 0,3.225 c 0.25875,0.0325 0.81625,0.0325 1.07625,0.0325 1.645,0 2.59875,-0.82 2.59875,-2.1025 m 2.01875,7.58875 c -0.7075,0 -0.98,-0.285 -1.38875,-0.8175 l -2.09625,-2.805 c -0.8175,-1.10125 -1.23875,-1.1375 -2.20875,-1.1375 l 0,2.87125 c 0,0.56875 0,1.28375 0.4075,1.88875 l -2.13875,0 c 0.40875,-0.605 0.40875,-1.32 0.40875,-1.88875 l 0,-6.38625 c 0,-0.675 -0.14875,-1.24125 -0.4825,-1.73875 1.4375,-0.0525 2.6975,-0.12875 3.73625,-0.16625 2.3,-0.0825 3.23,1.04 3.23,2.3125 0,1.53125 -1.11375,2.46 -2.55375,2.875 l 3.04875,3.5375 c 0.48125,0.6025 0.8875,1.015 1.43875,1.455 l -1.40125,0"
       id="path108"
       style="fill:#ffffff;fill-opacity:1;fill-rule:nonzero;stroke:none" />
  </g>
</svg>
